<?xml version="1.0" encoding="utf-8"?>
<!-- Generator: Adobe Illustrator 22.0.0, SVG Export Plug-In . SVG Version: 6.00 Build 0)  -->
<svg version="1.1" id="Livello_1" xmlns="http://www.w3.org/2000/svg" xmlns:xlink="http://www.w3.org/1999/xlink" x="0px" y="0px"
	 viewBox="0 0 310 150" style="enable-background:new 0 0 310 150;" xml:space="preserve">
<style type="text/css">
	.st0{fill:#1D1D1B;}
</style>
<g id="b">
	<g>
		<path class="st0" d="M124.6,79.5c0-2.7-3.7-5.2-8.2-5.2s-8.2,2.5-8.2,5.2h2.1c0-1.8,2.7-2.2,6.1-2.2s6.1,0.4,6.1,2.2H124.6z"/>
		<path class="st0" d="M128.7,30.8L128.7,30.8c-6.5-8-24.1-7-75.3,33.9c-0.1-11.2,1.7-20,8.8-19.9c0.6,0,1.8-0.3,1.4-2.5
			c-0.2-1.3-0.6-2.4-1.4-2.4l0,0C57,40,51.8,45.4,49.5,66c-2.1-1.2-4.3-2.5-6.6-3.8l-5.2,9.3c3.2,1.8,6.9,3.7,10.9,5.6
			c-0.3,4.9-0.4,10.3-0.4,16.4h7.2c-0.3-4.2-0.7-8.9-1.1-13.7c24.6,11.5,55.1,24.9,46.7,39.2c-0.5,0.8-1,2.4,2,3.6
			c1.8,0.7,3.5,0.9,4-0.1l0,0c4.6-8.3-1.4-22.5-46.6-50c21-18.5,51.2-52.7,62.9-37.5c0.6,0.7,1.9,1.8,4-0.5
			C128.6,33.2,129.4,31.7,128.7,30.8z"/>
		<path class="st0" d="M272,43.2c-5.8-7.2-22-6.1-69.6,32.6l5.9,7.3c18.3-14.9,47.9-50.5,59-36.1c0.5,0.6,1.6,1.5,3.5-0.5
			C271.9,45.3,272.6,44,272,43.2z"/>
		<path class="st0" d="M173.5,103.2c5.8,7.2,22,6.1,69.6-32.6l-5.9-7.3c-18.3,14.9-47.9,50.5-59,36.1c-0.5-0.6-1.6-1.6-3.5,0.5
			C173.6,101.1,172.9,102.4,173.5,103.2L173.5,103.2z"/>
		<path class="st0" d="M140,60.7c0.4,0.5,1.3,1.2,2.8-0.4c0.9-1,1.5-2,1-2.6l0,0l0,0c-3.2-4-10.5-4.7-27.6,5.7
			c-17.1-10.5-24.3-9.7-27.6-5.7l0,0l0,0c-0.5,0.6,0.1,1.7,1,2.6c1.5,1.6,2.4,0.9,2.8,0.4c4.2-5.5,11.9-1.8,20.3,4.9
			c-6.7,4.3-14.7,10.2-24.3,18l4.7,5.8c6.6-5.4,15-14.1,23.1-21c8.1,6.9,16.5,15.6,23.1,21l4.7-5.8c-9.6-7.8-17.6-13.7-24.3-18
			C128.1,58.9,135.7,55.2,140,60.7z"/>
		<path class="st0" d="M172.1,59.6c-14.3,0-25.9,6.3-25.9,14.1s11.6,14.2,25.9,14.2c14.3,0,25.9-6.3,25.9-14.2
			C198,65.9,186.4,59.6,172.1,59.6z M172.1,83.2c-10.6,0-19.2-4.2-19.2-9.5c0-5.2,8.6-9.4,19.2-9.4c10.6,0,19.2,4.2,19.2,9.4
			C191.3,79,182.7,83.2,172.1,83.2z"/>
	</g>
</g>
</svg>
