<?xml version="1.0" encoding="utf-8"?>
<!-- Generator: Adobe Illustrator 22.0.0, SVG Export Plug-In . SVG Version: 6.00 Build 0)  -->
<svg version="1.1" id="Livello_1" xmlns="http://www.w3.org/2000/svg" xmlns:xlink="http://www.w3.org/1999/xlink" x="0px" y="0px"
	 viewBox="0 0 310 150" style="enable-background:new 0 0 310 150;" xml:space="preserve">
<style type="text/css">
	.st0{fill:#1D1D1B;}
</style>
<g id="b">
	<g>
		<polygon class="st0" points="2.7,64.2 1.6,64.3 1.6,85.8 31.1,85.8 31.2,84.8 7.2,81.1 		"/>
		<polygon class="st0" points="53.1,67.9 32.6,85 33.2,85.8 53.4,75.1 74.6,85.8 75.2,84.9 53.4,67.6 		"/>
		<polygon class="st0" points="185.9,67.9 165.4,85 166,85.8 186.2,75.2 207.4,85.8 208,84.9 186.2,67.6 		"/>
		<polygon class="st0" points="286.6,67.6 286.3,67.9 265.8,85 266.4,85.8 286.5,75.2 307.8,85.8 308.4,84.9 		"/>
		<path class="st0" d="M142.2,67.9l-12.6,10.6l-13.7-10.9L95.1,85l0.6,0.8l20.2-10.6l13.7,6.6l12.9-6.5c0.5,0.2,21.3,10.5,21.3,10.5
			l0.6-0.8l-21.8-17.3L142.2,67.9z"/>
		<polygon class="st0" points="202.4,67.9 202.3,68.9 217.2,72.5 220.2,85.8 221.3,85.8 224.1,72.5 239.2,68.9 239.1,67.9 		"/>
		<polygon class="st0" points="277.6,67.9 240.9,67.9 240.8,68.9 255.7,72.5 258.7,85.8 259.8,85.8 262.6,72.5 277.7,68.9 		"/>
		<polygon class="st0" points="43.6,85.8 52.9,80.7 62.1,85.8 		"/>
		<polygon class="st0" points="176.2,85.8 185.5,80.6 194.7,85.8 		"/>
		<polygon class="st0" points="276.6,85.8 285.8,80.6 295.1,85.8 		"/>
	</g>
</g>
</svg>
